<?xml version="1.0" encoding="UTF-8"?>
<svg id="Layer_1" data-name="Layer 1" xmlns="http://www.w3.org/2000/svg" viewBox="0 0 64 56">
  <defs>
    <style>
      .cls-1 {
        fill: #f5f4f2;
      }

      .cls-2 {
        fill: none;
        stroke: #f5f4f2;
        stroke-width: 2.6px;
      }
    </style>
  </defs>
  <path class="cls-1" d="M57.26,12.19c-1.41-.89-2.97-1.52-4.59-1.89-.69-.15-1.33-.45-1.88-.89-.55-.43-1-.98-1.32-1.61-1.16-2.35-2.96-4.33-5.19-5.71C42.05,.72,39.47-.01,36.85,0c-1.94,0-3.86,.41-5.64,1.18-1.78,.78-3.38,1.91-4.7,3.33-.47,.5-1.05,.89-1.7,1.13-.65,.24-1.34,.32-2.03,.25-1.92-.17-3.86,.14-5.63,.91-1.67,.74-3.15,1.87-4.29,3.3-1.14,1.43-1.92,3.11-2.27,4.91-.14,.68-.43,1.32-.85,1.88-.42,.55-.96,1.01-1.58,1.32-2.27,1.19-4.19,2.95-5.6,5.1C1.16,25.45,.34,27.92,.16,30.48l-.16,1.52H8.74v-2.75H3.07c.36-1.81,1.12-3.52,2.23-5,1.11-1.48,2.53-2.69,4.17-3.54,.99-.51,1.84-1.24,2.51-2.13,.66-.89,1.12-1.92,1.33-3.01,.27-1.36,.86-2.63,1.73-3.71,.87-1.08,1.98-1.94,3.25-2.49,1.34-.59,2.8-.83,4.26-.7,1.1,.11,2.22-.03,3.26-.43,1.04-.39,1.97-1.02,2.73-1.83,1.06-1.14,2.35-2.06,3.78-2.68,1.43-.62,2.98-.95,4.54-.95,2.11-.02,4.18,.56,5.98,1.67,1.79,1.11,3.24,2.7,4.17,4.6,.5,1,1.22,1.87,2.1,2.56,.88,.69,1.91,1.17,3,1.41,1.7,.38,3.29,1.13,4.66,2.19,1.37,1.07,2.48,2.43,3.26,3.99,.78,1.55,1.2,3.26,1.23,5,.03,1.74-.32,3.46-1.04,5.04h-3.96v2.77h5.61l.38-.72c1.76-3.22,2.22-6.98,1.29-10.53-.92-3.55-3.17-6.61-6.27-8.56Z"/>
  <rect class="cls-2" x="12.3" y="27.3" width="40.4" height="27.4"/>
  <path class="cls-2" d="M21,33h-3v17h3"/>
  <path class="cls-2" d="M35,33h-3v17h3"/>
  <path class="cls-2" d="M28,33h-3v17h3"/>
  <path class="cls-2" d="M42,33h-3v17h3"/>
  <path class="cls-2" d="M49,33h-3v17h3"/>
</svg>