<?xml version="1.0" encoding="UTF-8"?><svg xmlns="http://www.w3.org/2000/svg" viewBox="0 0 679.977 85.242"><g id="Layer_1" image-rendering="optimizeQuality" shape-rendering="geometricPrecision" text-rendering="geometricPrecision"><path d="M670.484,9.102c.685,0,1.37,0,1.762-.685,.098-.294,.196-.587,.196-.881,0-.587-.294-1.077-.783-1.37-.489-.196-.979-.196-2.055-.196h-.489v3.034h1.37v.098Zm-.881-4.795c1.468,0,2.153,0,2.74,.294,1.957,.587,2.153,2.349,2.153,2.936,0,.098,0,.489-.098,.881s-.294,1.174-1.37,1.859q-.196,.098-.489,.196l2.447,4.502h-2.349l-2.153-4.11h-1.37v4.11h-2.153V4.306h2.642Zm.881,15.071c5.285,0,9.493-4.306,9.493-9.493,0-5.285-4.208-9.493-9.493-9.493-5.187,0-9.395,4.208-9.395,9.493,0,5.187,4.208,9.493,9.395,9.493Zm-7.438-9.493c0-4.11,3.327-7.536,7.438-7.536,4.208,0,7.536,3.425,7.536,7.536,0,4.013-3.425,7.438-7.536,7.438-4.013,0-7.438-3.425-7.438-7.438Zm-65.962,60.384c-12.527,0-22.999-8.417-26.228-19.867h69.29l9.591-14.876h-78.978c3.132-11.45,13.799-19.965,26.228-19.965h47.759l9.493-14.876h-58.328c-23.39,0-42.278,18.888-42.278,42.18s18.888,42.18,42.278,42.18h50.108l9.493-14.876h-58.524l.098,.098Zm-198.571,14.876c-23.292,0-42.18-18.888-42.18-42.18S375.22,.783,398.512,.783h58.328l-9.591,14.876h-47.759c-15.071,0-27.305,12.233-27.305,27.305s12.233,27.305,27.305,27.305h58.524l-9.591,14.876h-49.912Zm-308.28-14.876c15.071,0,27.403-12.233,27.403-27.305s-12.233-27.305-27.403-27.305H43.355c-15.071,0-27.305,12.233-27.305,27.305s12.233,27.305,27.305,27.305h46.878Zm-47.955,14.876C18.888,85.144,0,66.256,0,42.963S18.888,.783,42.278,.783h49.031c23.292,0,42.18,18.888,42.18,42.18s-18.888,42.18-42.18,42.18H42.278Zm170.875-27.305c15.854,0,28.577-12.821,28.577-28.577S229.008,.685,213.153,.685h-71.051V85.144h16.246V15.561h53.729c7.438,0,13.603,6.166,13.603,13.701s-6.166,13.603-13.603,13.603h-45.802l48.346,42.278h23.586l-32.59-27.305h7.536Zm268.546,12.429V.783h-16.148V77.119c0,2.153,.783,4.11,2.349,5.676,1.566,1.468,3.719,2.447,5.97,2.447h74.085l9.591-14.876h-75.749l-.098-.098Zm-198.669-14.876h43.355l-22.901-36.896-42.083,66.745h-19.084L293.404,5.187c2.251-3.23,5.97-5.187,10.08-5.187,3.915,0,7.634,1.859,9.885,4.991l51.282,80.251h-19.182l-9.004-14.876h-43.844l-9.591-14.876v-.098Z" style="fill:#fefefe;"/></g></svg>